<svg width="125" height="33" viewBox="0 0 125 33" fill="none" xmlns="http://www.w3.org/2000/svg">
<g id="Layer_1-2">
<g id="Group">
<path id="Vector" d="M36.3759 4.57873C36.3759 3.04775 35.1348 1.80664 33.6038 1.80664C32.0728 1.80664 30.8317 3.04775 30.8317 4.57873C30.8317 6.10971 32.0728 7.35082 33.6038 7.35082C35.1348 7.35082 36.3759 6.10971 36.3759 4.57873Z" fill="white"/>
<path id="Vector_2" d="M65.8457 4.57873C65.8457 3.04775 64.6046 1.80664 63.0737 1.80664C61.5427 1.80664 60.3016 3.04775 60.3016 4.57873C60.3016 6.10971 61.5427 7.35082 63.0737 7.35082C64.6046 7.35082 65.8457 6.10971 65.8457 4.57873Z" fill="#00D563"/>
<g id="Group_2">
<path id="Vector_3" d="M19.1281 30.4746C17.8008 31.0345 16.4597 31.311 15.1117 31.311C12.9756 31.311 11.0607 30.9377 9.35323 30.1981C7.64573 29.4584 6.21476 28.4353 5.03956 27.1356C3.87127 25.836 2.97259 24.3082 2.35042 22.5524C1.72826 20.7965 1.41718 18.9023 1.41718 16.8768C1.41718 14.8513 1.72826 12.8673 2.35042 11.0838C2.97259 9.30025 3.87127 7.74484 5.03956 6.41755C6.20784 5.09027 7.64573 4.05333 9.35323 3.2929C11.0538 2.53939 12.9756 2.15918 15.1117 2.15918C16.5427 2.15918 17.9253 2.37348 19.2664 2.80208C20.6075 3.23069 21.8173 3.85976 22.8957 4.69623C23.9741 5.52578 24.8659 6.55581 25.571 7.7794C26.2761 9.00299 26.7047 10.4063 26.8568 11.9963H21.0015C20.6351 10.434 19.9369 9.26568 18.8931 8.48452C17.8492 7.70336 16.5911 7.31623 15.1117 7.31623C13.7291 7.31623 12.5608 7.58584 11.5999 8.11813C10.639 8.65043 9.85787 9.36938 9.25645 10.2611C8.65502 11.1598 8.21951 12.1829 7.9499 13.3236C7.67339 14.4711 7.54204 15.6532 7.54204 16.8768C7.54204 18.1004 7.6803 19.1858 7.9499 20.2918C8.22642 21.3979 8.66194 22.3934 9.25645 23.2782C9.85787 24.1631 10.6321 24.8751 11.5999 25.4074C12.5608 25.9397 13.7291 26.2093 15.1117 26.2093C17.1441 26.2093 18.7064 25.6977 19.8125 24.6677C20.9186 23.6377 21.5615 22.1514 21.7412 20.202H15.5749V15.6394H27.2785V30.7027H23.3727L22.7505 27.5435C21.6583 28.9468 20.4485 29.9285 19.1212 30.4884L19.1281 30.4746Z" fill="white"/>
<path id="Vector_4" d="M36.3759 10.5168H30.8317V30.6888H36.3759V10.5168Z" fill="white"/>
<path id="Vector_5" d="M49.3723 10.5168V14.2222H45.3144V24.2114C45.3144 25.1446 45.4734 25.7737 45.7844 26.0848C46.0955 26.3959 46.7177 26.5549 47.6578 26.5549C47.9689 26.5549 48.2662 26.541 48.5565 26.5134C48.84 26.4857 49.1165 26.4512 49.3792 26.3959V30.6888C48.9091 30.7648 48.3906 30.8201 47.8168 30.8478C47.2431 30.8755 46.6831 30.8893 46.137 30.8893C45.2798 30.8893 44.4641 30.834 43.6967 30.7165C42.9294 30.5989 42.2519 30.3708 41.6643 30.0321C41.0767 29.6933 40.6205 29.2094 40.2817 28.5873C39.943 27.9651 39.7771 27.1425 39.7771 26.1263V4.46802H45.3213V10.5168H49.3792H49.3723Z" fill="white"/>
<path id="Vector_6" d="M56.7483 2.82983V30.689H51.2042V2.82983H56.7483Z" fill="#00D563"/>
<path id="Vector_7" d="M65.8457 10.5168H60.3016V30.6888H65.8457V10.5168Z" fill="#00D563"/>
<path id="Vector_8" d="M74.6183 10.5169V13.2475H74.6943C75.4202 12.2106 76.2981 11.4018 77.3282 10.828C78.3582 10.2542 79.5334 9.97078 80.8607 9.97078C82.1879 9.97078 83.3009 10.2196 84.3517 10.7105C85.4025 11.2082 86.2044 12.0792 86.7505 13.3236C87.3519 12.4387 88.1607 11.6575 89.1908 10.9801C90.2208 10.3026 91.4375 9.96387 92.8408 9.96387C93.9054 9.96387 94.8939 10.0952 95.8064 10.351C96.7189 10.6137 97.4932 11.0285 98.1499 11.6022C98.7997 12.176 99.3044 12.9226 99.6708 13.8489C100.037 14.7753 100.217 15.8883 100.217 17.1879V30.6889H94.6727V19.2618C94.6727 18.5843 94.6451 17.9483 94.5967 17.3469C94.5414 16.7524 94.4031 16.227 94.1681 15.7846C93.933 15.3421 93.5874 14.9896 93.1311 14.7338C92.6749 14.4711 92.0596 14.3467 91.2785 14.3467C90.4973 14.3467 89.8682 14.4988 89.3843 14.796C88.9004 15.0933 88.5271 15.4873 88.2506 15.9643C87.9741 16.4482 87.7943 16.9943 87.7045 17.6027C87.6146 18.211 87.5662 18.8332 87.5662 19.4553V30.6958H82.022V19.3793C82.022 18.7779 82.0082 18.1903 81.9806 17.6027C81.9529 17.0151 81.8423 16.4759 81.6487 15.985C81.4552 15.4942 81.1303 15.0933 80.674 14.796C80.2178 14.4988 79.5472 14.3467 78.6623 14.3467C78.3997 14.3467 78.0609 14.402 77.6254 14.5195C77.1968 14.637 76.782 14.8582 76.3742 15.1831C75.9732 15.508 75.6276 15.9781 75.3372 16.5865C75.0538 17.1948 74.9086 17.9967 74.9086 18.9853V30.6889H69.3644V10.5169H74.5906H74.6183Z" fill="#00D563"/>
<path id="Vector_9" d="M109.542 25.8568C110.372 26.6656 111.575 27.0666 113.13 27.0666C114.25 27.0666 115.211 26.7901 116.02 26.2301C116.829 25.6702 117.32 25.0756 117.506 24.4535H122.387C121.606 26.873 120.41 28.6012 118.799 29.6451C117.188 30.689 115.232 31.2074 112.944 31.2074C111.354 31.2074 109.923 30.9516 108.651 30.447C107.379 29.9424 106.293 29.2165 105.409 28.2832C104.524 27.35 103.839 26.2301 103.362 24.9305C102.878 23.6308 102.643 22.1999 102.643 20.6375C102.643 19.0752 102.892 17.7272 103.383 16.4206C103.874 15.121 104.579 13.9942 105.492 13.0471C106.404 12.1001 107.489 11.3465 108.747 10.8004C110.006 10.2543 111.409 9.97778 112.944 9.97778C114.658 9.97778 116.158 10.3096 117.43 10.9732C118.702 11.6369 119.753 12.5287 120.569 13.6486C121.391 14.7685 121.979 16.0404 122.345 17.4714C122.712 18.9024 122.836 20.3956 122.732 21.9579H108.181C108.257 23.7553 108.713 25.0549 109.549 25.8568H109.542ZM115.806 15.2454C115.142 14.5196 114.133 14.1532 112.778 14.1532C111.893 14.1532 111.16 14.3053 110.573 14.6025C109.985 14.8998 109.522 15.2731 109.169 15.7155C108.817 16.158 108.568 16.628 108.43 17.1189C108.284 17.6166 108.201 18.0521 108.174 18.4461H117.188C116.926 17.0428 116.469 15.9782 115.806 15.2454Z" fill="#00D563"/>
</g>
</g>
</g>
</svg>
